<?xml version="1.0" encoding="UTF-8" standalone="no"?>
<!-- Created with Inkscape (http://www.inkscape.org/) -->

<svg
   width="2560"
   height="1440"
   viewBox="0 0 677.33332 381.00001"
   version="1.1"
   id="svg4944"
   inkscape:version="1.1 (c4e8f9e, 2021-05-24)"
   sodipodi:docname="mOS_2_ex.svg"
   inkscape:export-filename="mOS.png"
   inkscape:export-xdpi="96"
   inkscape:export-ydpi="96"
   xmlns:inkscape="http://www.inkscape.org/namespaces/inkscape"
   xmlns:sodipodi="http://sodipodi.sourceforge.net/DTD/sodipodi-0.dtd"
   xmlns:xlink="http://www.w3.org/1999/xlink"
   xmlns="http://www.w3.org/2000/svg"
   xmlns:svg="http://www.w3.org/2000/svg">
  <sodipodi:namedview
     id="namedview4946"
     pagecolor="#ffffff"
     bordercolor="#666666"
     borderopacity="1.0"
     inkscape:pageshadow="2"
     inkscape:pageopacity="0.0"
     inkscape:pagecheckerboard="0"
     inkscape:document-units="mm"
     showgrid="false"
     inkscape:zoom="0.76796875"
     inkscape:cx="1280"
     inkscape:cy="719.43032"
     inkscape:window-width="2560"
     inkscape:window-height="1378"
     inkscape:window-x="0"
     inkscape:window-y="0"
     inkscape:window-maximized="1"
     inkscape:current-layer="text95608"
     units="px" />
  <defs
     id="defs4941" />
  <g
     inkscape:label="Layer 1"
     inkscape:groupmode="layer"
     id="layer1">
    <rect
       style="fill:#000000;fill-opacity:1;stroke:none;stroke-width:1.48569"
       id="rect5051"
       width="677.33331"
       height="381"
       x="-0.053374156"
       y="0.28477734"
       inkscape:label="background"
       sodipodi:insensitive="true" />
    <image
       preserveAspectRatio="none"
       inkscape:svg-dpi="96"
       width="128"
       height="128"
       xlink:href="../mocaccino-icons/mOS_mocaccino_logo.svg"
       id="image12407"
       x="512.29156"
       y="200.08345"
       inkscape:label="mocaccino logo" />
    <g
       aria-label="mocaccinoOS"
       id="text95608"
       style="font-size:11.2889px;line-height:1.25;display:inline;fill:#780000;stroke-width:0.264583">
      <path
         d="m 523.30501,346.94419 c 0.0113,-0.0113 0.73378,-0.58703 1.65947,-1.37725 0.66605,-0.54187 1.49014,-1.17404 2.34809,-1.78365 2.78836,-1.99813 4.80907,-2.92382 5.7009,-2.60773 0,0 0.25964,0.1016 0.29351,0.45155 0.0339,0.37254 -0.18062,0.92569 -0.62089,1.59174 -0.33867,0.48542 -0.79022,1.04987 -1.36596,1.65947 -0.84666,0.85795 -1.79493,1.78364 -1.81751,1.79493 l 0.13547,0.12418 c 0.69991,-0.67733 1.35466,-1.35467 1.81751,-1.78365 0.39511,-0.37253 0.83538,-0.76764 1.29822,-1.15146 0.99343,-0.83538 1.88525,-1.47885 2.65289,-1.91912 0.95956,-0.53057 1.70463,-0.74506 2.29165,-0.67733 0.0113,0 0.41769,0.0452 0.49671,0.38382 0.0452,0.22578 -0.0452,0.51929 -0.29351,0.90311 -0.31609,0.508 -0.88053,1.12889 -1.67076,1.86267 -0.48542,0.45156 -0.85795,0.89183 -1.016,1.16276 -0.16933,0.29351 -0.24835,0.53058 -0.18062,0.72249 0.25965,0.69991 1.60303,0.33867 2.31423,0.0677 0.65475,-0.24835 1.76106,-0.82409 3.21733,-1.98684 0.0452,-0.0452 0.0565,-0.11289 0.0339,-0.14676 -0.0339,-0.0452 -0.1016,-0.0452 -0.14676,0 -1.41111,1.12889 -2.48355,1.68205 -3.13831,1.94169 -0.49671,0.2032 -1.87396,0.59831 -2.07716,0.0226 -0.079,-0.2032 0.0677,-0.66605 1.1176,-1.64818 1.49014,-1.37725 2.17876,-2.38196 2.05458,-2.98027 -0.11289,-0.42898 -0.58702,-0.47413 -0.65475,-0.48542 -0.59832,-0.0677 -1.42241,0.12418 -2.41583,0.68862 -0.79022,0.45156 -1.69333,1.10631 -2.69805,1.94169 -0.079,0.0677 -0.16933,0.14676 -0.24835,0.21449 0.16933,-0.21449 0.32738,-0.42898 0.45155,-0.62089 0.48543,-0.72249 0.72249,-1.30951 0.67734,-1.73849 -0.0903,-0.74507 -0.85796,-0.72249 -1.56916,-0.55316 -0.41769,0.1016 -0.9144,0.29352 -1.45627,0.56445 -0.92569,0.46284 -2.032,1.14018 -3.28507,2.04329 -0.12417,0.0903 -0.24835,0.16933 -0.36124,0.25964 0.49671,-0.46284 0.90311,-0.86924 1.23049,-1.23049 0.6096,-0.66604 0.9144,-1.12889 0.90311,-1.39982 0.0113,-0.13547 -0.0677,-0.22578 -0.18062,-0.27093 -0.0452,-0.0226 -0.11289,0 -0.14676,0.0564 -0.0226,0.0565 -0.0113,0.11289 0.0452,0.13547 0.0452,0.0226 0.079,0.0564 0.0903,0.11289 0,0.23706 -0.38382,0.92569 -2.77707,3.11573 -0.73378,0.66605 -2.79965,2.37067 -2.83351,2.40454 z"
         style="font-style:italic;font-family:'League Script Thin';-inkscape-font-specification:'League Script Thin,  Italic';text-align:center;text-anchor:middle;fill:#780000;fill-opacity:1;stroke:#780000;stroke-opacity:1"
         id="path109554" />
      <path
         d="m 541.57044,346.86516 c 0.47414,0 1.07245,-0.14675 1.71592,-0.46284 0.6096,-0.29351 1.28693,-0.73378 1.95298,-1.25307 0.25964,-0.2032 0.51928,-0.41769 0.76764,-0.64347 0.42898,0.58703 1.2192,0.83538 2.06587,0.75636 0.73378,-0.0677 1.49013,-0.37253 2.2352,-0.86924 0.0452,-0.0339 0.0565,-0.0903 0.0339,-0.13547 -0.0226,-0.0452 -0.0903,-0.0564 -0.13547,-0.0226 -1.51271,1.02729 -3.21733,1.16276 -4.03014,0.11289 0.25965,-0.23707 0.508,-0.49671 0.74507,-0.74507 0.47414,-0.53058 0.83538,-1.00471 0.98214,-1.33209 0.0226,-0.0451 0.24835,-0.54187 0.0903,-0.76764 -0.0565,-0.079 -0.13547,-0.13547 -0.22578,-0.15805 0.0226,-0.0339 0.0339,-0.079 0.0226,-0.12418 -0.0113,-0.0113 -0.18063,-0.33866 -0.68863,-0.53057 -0.29351,-0.11289 -0.65475,-0.14676 -1.03857,-0.12418 -0.47414,0.0339 -0.99343,0.16933 -1.60303,0.4064 -0.69991,0.29351 -1.55787,0.82409 -2.30293,1.4224 -0.62089,0.508 -1.45627,1.29822 -1.87396,2.21262 -0.0113,0.0339 -0.42898,0.95956 -0.079,1.62561 0.2032,0.38382 0.63217,0.59831 1.25306,0.63217 z m 4.69619,-6.10729 c 0.27093,0 0.54186,0.0564 0.72249,0.11289 0.36124,0.11289 0.55315,0.38382 0.59831,0.45155 -0.0565,0 -0.11289,0 -0.18063,0.0113 -0.27093,0.0452 -0.54186,0.19191 -0.79022,0.42898 -0.21449,0.21449 -0.4064,0.508 -0.54187,0.83538 -0.18062,0.4064 -0.25964,0.84667 -0.24835,1.23049 0.0113,0.18062 0.0451,0.34996 0.1016,0.49671 -0.25965,0.23707 -0.51929,0.46285 -0.80151,0.67734 -1.41112,1.10631 -2.72063,1.71591 -3.61245,1.65946 -0.56445,-0.0226 -0.93698,-0.21448 -1.1176,-0.54186 -0.3048,-0.58703 0.079,-1.45627 0.079,-1.45627 0.7112,-1.55787 2.82222,-3.01414 4.03014,-3.49956 0.66604,-0.27093 1.27564,-0.4064 1.76107,-0.4064 z m 1.28693,0.76764 c 0.12418,0 0.21449,0.0339 0.25964,0.1016 0.0903,0.14676 -0.0339,0.46285 -0.079,0.57574 -0.24835,0.51929 -0.85795,1.23049 -1.63689,1.96427 -0.13546,-0.44027 -0.0452,-1.03858 0.15805,-1.524 0.29351,-0.69992 0.76764,-1.10632 1.29822,-1.11761 z"
         style="font-style:italic;font-family:'League Script Thin';-inkscape-font-specification:'League Script Thin,  Italic';text-align:center;text-anchor:middle;fill:#780000;fill-opacity:1;stroke:#780000;stroke-opacity:1"
         id="path109556" />
      <path
         d="m 551.48209,346.80872 c 0.21449,0 0.36124,-0.0113 0.39511,-0.0113 0.0677,0 0.83538,-0.0451 1.90782,-0.3048 0.65476,-0.15804 1.33209,-0.4064 1.98685,-0.69991 0.82409,-0.37253 1.61431,-0.83538 2.35938,-1.36596 0.0564,-0.0339 0.0677,-0.1016 0.0451,-0.14675 -0.0226,-0.0452 -0.0903,-0.0452 -0.14675,-0.0113 -1.64818,1.18533 -3.22863,1.77235 -4.25592,2.02071 -1.06115,0.25965 -1.85138,0.3048 -1.86266,0.3048 -0.0226,0 -2.15618,0.2032 -2.09974,-0.94827 0.0226,-0.62089 0.63218,-1.55787 1.60302,-2.4384 0.99343,-0.90311 2.16747,-1.58045 3.11574,-1.79493 0.8128,-0.19192 1.33209,-0.13547 1.49013,0.15804 0.13547,0.24836 -0.0113,0.6096 -0.14675,0.79022 -0.0339,0.0452 -0.0339,0.11289 0,0.13547 0.0564,0.0226 0.11289,0.0113 0.15804,-0.0452 0.16934,-0.22577 0.36125,-0.67733 0.18063,-1.00471 -0.1016,-0.16933 -0.27094,-0.28222 -0.53058,-0.32738 -0.28222,-0.0451 -0.67734,-0.0113 -1.16276,0.0903 -0.99342,0.22577 -2.20133,0.92569 -3.22862,1.86266 -1.02729,0.93698 -1.67076,1.90783 -1.69334,2.60774 -0.0226,0.55316 0.37253,0.92569 1.14018,1.07245 0.27093,0.0451 0.54187,0.0564 0.74507,0.0564 z"
         style="font-style:italic;font-family:'League Script Thin';-inkscape-font-specification:'League Script Thin,  Italic';text-align:center;text-anchor:middle;fill:#780000;fill-opacity:1;stroke:#780000;stroke-opacity:1"
         id="path109558" />
      <path
         d="m 568.30254,344.21227 c -0.0226,-0.0451 -0.0903,-0.0451 -0.14676,-0.0113 -1.524,1.19663 -3.48827,2.40454 -4.83164,2.40454 -0.32738,0 -0.95956,-0.1016 -0.90312,-0.49671 0.0339,-0.23707 0.28223,-0.56445 0.75636,-0.97085 0.37253,-0.32738 0.9144,-0.7112 1.58045,-1.14018 1.1176,-0.7112 2.25778,-1.29822 2.26906,-1.30951 0.0452,-0.0226 0.0903,-0.0903 0.0565,-0.13547 -0.0113,-0.0451 -0.0677,-0.0677 -0.12418,-0.0339 -0.0113,0 -1.14018,0.58702 -2.29165,1.3208 -0.0339,0.0226 -0.0677,0.0451 -0.11288,0.0677 0.93697,-0.8128 1.39982,-1.50142 1.38853,-2.05458 -0.0226,-0.65475 -0.72249,-0.85795 -0.76765,-0.86924 -0.24835,-0.079 -0.53057,-0.11289 -0.83537,-0.11289 -0.64347,0 -1.36596,0.15804 -2.15618,0.48542 -0.82409,0.32738 -1.67076,0.8128 -2.52872,1.43369 -1.33209,0.97085 -2.05458,1.87396 -2.12231,2.67547 -0.0564,0.93698 0.56444,1.49014 1.51271,1.49014 0.58702,0 1.28694,-0.22578 2.14489,-0.69992 0.53058,-0.29351 1.06116,-0.64346 1.61432,-1.02729 -0.36125,0.34996 -0.55316,0.64347 -0.58703,0.89183 -0.0677,0.56444 0.63218,0.68862 1.07245,0.68862 1.55787,0 3.69147,-1.46756 4.9784,-2.44969 0.0452,-0.0452 0.0564,-0.1016 0.0339,-0.14676 z m -9.21174,2.54001 c -0.84667,0 -1.4224,-0.49672 -1.35467,-1.30952 0.0339,-0.32738 0.18062,-0.67733 0.46284,-1.04986 0.33867,-0.45156 0.86925,-0.94827 1.55787,-1.44498 1.63689,-1.19663 3.29636,-1.87396 4.54943,-1.87396 0.28222,0 0.54187,0.0339 0.77893,0.1016 0.0113,0 0.64347,0.18062 0.65476,0.72249 0.0113,0.46284 -0.39511,1.29822 -2.39325,2.72062 -1.33209,0.94827 -2.99156,2.13361 -4.25591,2.13361 z"
         style="font-style:italic;font-family:'League Script Thin';-inkscape-font-specification:'League Script Thin,  Italic';text-align:center;text-anchor:middle;fill:#780000;fill-opacity:1;stroke:#780000;stroke-opacity:1"
         id="path109560" />
      <path
         d="m 569.39755,346.80872 c 0.21449,0 0.36124,-0.0113 0.39511,-0.0113 0.0677,0 0.83538,-0.0451 1.90782,-0.3048 0.65476,-0.15804 1.3321,-0.4064 1.98685,-0.69991 0.82409,-0.37253 1.61431,-0.83538 2.35938,-1.36596 0.0565,-0.0339 0.0677,-0.1016 0.0452,-0.14675 -0.0226,-0.0452 -0.0903,-0.0452 -0.14676,-0.0113 -1.64818,1.18533 -3.22862,1.77235 -4.25591,2.02071 -1.06116,0.25965 -1.85138,0.3048 -1.86267,0.3048 -0.0226,0 -2.15618,0.2032 -2.09974,-0.94827 0.0226,-0.62089 0.63218,-1.55787 1.60303,-2.4384 0.99342,-0.90311 2.16746,-1.58045 3.11573,-1.79493 0.8128,-0.19192 1.33209,-0.13547 1.49014,0.15804 0.13546,0.24836 -0.0113,0.6096 -0.14676,0.79022 -0.0339,0.0452 -0.0339,0.11289 0,0.13547 0.0564,0.0226 0.11289,0.0113 0.15805,-0.0452 0.16933,-0.22577 0.36124,-0.67733 0.18062,-1.00471 -0.1016,-0.16933 -0.27094,-0.28222 -0.53058,-0.32738 -0.28222,-0.0451 -0.67733,-0.0113 -1.16276,0.0903 -0.99342,0.22577 -2.20133,0.92569 -3.22862,1.86266 -1.02729,0.93698 -1.67076,1.90783 -1.69334,2.60774 -0.0226,0.55316 0.37254,0.92569 1.14018,1.07245 0.27094,0.0451 0.54187,0.0564 0.74507,0.0564 z"
         style="font-style:italic;font-family:'League Script Thin';-inkscape-font-specification:'League Script Thin,  Italic';text-align:center;text-anchor:middle;fill:#780000;fill-opacity:1;stroke:#780000;stroke-opacity:1"
         id="path109562" />
      <path
         d="m 577.22074,346.80872 c 0.21449,0 0.36125,-0.0113 0.39511,-0.0113 0.0677,0 0.83538,-0.0451 1.90783,-0.3048 0.65475,-0.15804 1.33209,-0.4064 1.98684,-0.69991 0.82409,-0.37253 1.61432,-0.83538 2.35938,-1.36596 0.0564,-0.0339 0.0677,-0.1016 0.0452,-0.14675 -0.0226,-0.0452 -0.0903,-0.0452 -0.14676,-0.0113 -1.64818,1.18533 -3.22862,1.77235 -4.25591,2.02071 -1.06116,0.25965 -1.85138,0.3048 -1.86267,0.3048 -0.0226,0 -2.15618,0.2032 -2.09974,-0.94827 0.0226,-0.62089 0.63218,-1.55787 1.60303,-2.4384 0.99342,-0.90311 2.16747,-1.58045 3.11573,-1.79493 0.81281,-0.19192 1.3321,-0.13547 1.49014,0.15804 0.13547,0.24836 -0.0113,0.6096 -0.14676,0.79022 -0.0339,0.0452 -0.0339,0.11289 0,0.13547 0.0565,0.0226 0.11289,0.0113 0.15805,-0.0452 0.16933,-0.22577 0.36124,-0.67733 0.18062,-1.00471 -0.1016,-0.16933 -0.27093,-0.28222 -0.53058,-0.32738 -0.28222,-0.0451 -0.67733,-0.0113 -1.16275,0.0903 -0.99343,0.22577 -2.20134,0.92569 -3.22863,1.86266 -1.02729,0.93698 -1.67076,1.90783 -1.69333,2.60774 -0.0226,0.55316 0.37253,0.92569 1.14017,1.07245 0.27094,0.0451 0.54187,0.0564 0.74507,0.0564 z"
         style="font-style:italic;font-family:'League Script Thin';-inkscape-font-specification:'League Script Thin,  Italic';text-align:center;text-anchor:middle;fill:#780000;fill-opacity:1;stroke:#780000;stroke-opacity:1"
         id="path109564" />
      <path
         d="m 583.71186,346.70712 c 1.524,0 3.4544,-1.18533 5.02356,-2.32551 0.0564,-0.0452 0.0677,-0.1016 0.0452,-0.14676 -0.0339,-0.0452 -0.1016,-0.0452 -0.14675,-0.0113 -1.52401,1.12889 -3.57859,2.28036 -4.8881,2.28036 -0.29351,0 -0.73378,-0.0339 -0.75635,-0.36125 -0.0452,-0.82409 1.30951,-2.24649 2.04329,-3.07058 1.04986,-1.15146 2.12231,-2.16747 2.1336,-2.17875 0.0452,-0.0452 0.0564,-0.11289 0.0113,-0.14676 -0.0339,-0.0339 -0.1016,-0.0339 -0.14676,0.0113 -0.0113,0.0113 -1.08373,1.03858 -2.1336,2.20133 -0.79022,0.88054 -2.17876,2.3481 -2.11102,3.22863 0.0113,0.45156 0.508,0.51929 0.92569,0.51929 z m 5.24933,-7.39423 c 0.0565,-0.29351 -0.14675,-0.54187 -0.44026,-0.54187 -0.3048,0 -0.59831,0.24836 -0.65476,0.54187 -0.0677,0.3048 0.13547,0.55316 0.44027,0.55316 0.29351,0 0.58702,-0.24836 0.65475,-0.55316 z"
         style="font-style:italic;font-family:'League Script Thin';-inkscape-font-specification:'League Script Thin,  Italic';text-align:center;text-anchor:middle;fill:#780000;fill-opacity:1;stroke:#780000;stroke-opacity:1"
         id="path109566" />
      <path
         d="m 586.42118,346.8313 c 0,-0.0113 0.508,-0.56445 1.07244,-1.15147 0.55316,-0.56445 1.28694,-1.26436 2.11103,-1.94169 1.64818,-1.34338 4.00756,-2.87867 5.87023,-2.48356 0.33866,0.0677 0.53058,0.21449 0.55315,0.42898 0.079,0.54187 -0.79022,1.39982 -0.79022,1.39982 0,0 -0.57573,0.54187 -1.10631,1.16276 -0.73378,0.88053 -1.10631,1.53529 -1.09503,1.97556 0.0113,0.22578 0.13547,0.38382 0.33867,0.47413 0.0903,0.0452 0.21449,0.0677 0.36125,0.0677 0.56444,0 1.45626,-0.37253 2.66418,-1.10631 1.09502,-0.67733 2.08844,-1.4224 2.08844,-1.4224 0.0452,-0.0452 0.0565,-0.1016 0.0339,-0.14676 -0.0226,-0.0451 -0.0903,-0.0451 -0.14676,-0.0113 0,0.0113 -0.97084,0.74506 -2.06586,1.41111 -1.41112,0.86924 -2.38196,1.2192 -2.82223,1.02729 -0.15804,-0.0677 -0.23707,-0.18062 -0.23707,-0.33867 -0.0113,-0.37253 0.33867,-1.00471 1.02729,-1.81751 0.53058,-0.62089 1.08374,-1.14018 1.08374,-1.15147 0.0226,-0.0339 0.97084,-0.93698 0.86924,-1.59173 -0.0452,-0.28223 -0.27093,-0.47414 -0.66604,-0.56445 -0.86925,-0.18062 -1.89654,0.0113 -3.05929,0.56445 -0.92569,0.44026 -1.94169,1.10631 -3.01414,1.98684 -0.2032,0.16934 -0.4064,0.33867 -0.59831,0.508 0.56444,-0.66604 1.016,-1.23049 1.34338,-1.68204 0.62089,-0.88054 0.64346,-1.17405 0.6096,-1.30952 -0.0113,-0.0451 -0.0677,-0.0677 -0.12418,-0.0451 -0.0564,0.0226 -0.0903,0.079 -0.079,0.13547 0.0452,0.13546 -0.0903,0.69991 -2.08845,3.00284 -0.4064,0.47414 -0.83538,0.94827 -1.20791,1.34338 -0.67734,0.72249 -1.07245,1.15147 -1.07245,1.15147 z"
         style="font-style:italic;font-family:'League Script Thin';-inkscape-font-specification:'League Script Thin,  Italic';text-align:center;text-anchor:middle;fill:#780000;fill-opacity:1;stroke:#780000;stroke-opacity:1"
         id="path109568" />
      <path
         d="m 599.41469,346.86516 c 0.47413,0 1.07244,-0.14675 1.71591,-0.46284 0.6096,-0.29351 1.28694,-0.73378 1.95298,-1.25307 0.25965,-0.2032 0.51929,-0.41769 0.76765,-0.64347 0.42897,0.58703 1.2192,0.83538 2.06587,0.75636 0.73377,-0.0677 1.49013,-0.37253 2.2352,-0.86924 0.0452,-0.0339 0.0564,-0.0903 0.0339,-0.13547 -0.0226,-0.0452 -0.0903,-0.0564 -0.13546,-0.0226 -1.51272,1.02729 -3.21734,1.16276 -4.03014,0.11289 0.25964,-0.23707 0.508,-0.49671 0.74507,-0.74507 0.47413,-0.53058 0.83538,-1.00471 0.98213,-1.33209 0.0226,-0.0451 0.24836,-0.54187 0.0903,-0.76764 -0.0564,-0.079 -0.13546,-0.13547 -0.22577,-0.15805 0.0226,-0.0339 0.0339,-0.079 0.0226,-0.12418 -0.0113,-0.0113 -0.18062,-0.33866 -0.68862,-0.53057 -0.29351,-0.11289 -0.65476,-0.14676 -1.03858,-0.12418 -0.47413,0.0339 -0.99342,0.16933 -1.60302,0.4064 -0.69991,0.29351 -1.55787,0.82409 -2.30294,1.4224 -0.62089,0.508 -1.45627,1.29822 -1.87396,2.21262 -0.0113,0.0339 -0.42897,0.95956 -0.079,1.62561 0.2032,0.38382 0.63218,0.59831 1.25307,0.63217 z m 4.69618,-6.10729 c 0.27093,0 0.54187,0.0564 0.72249,0.11289 0.36125,0.11289 0.55316,0.38382 0.59831,0.45155 -0.0564,0 -0.11289,0 -0.18062,0.0113 -0.27093,0.0452 -0.54187,0.19191 -0.79022,0.42898 -0.21449,0.21449 -0.4064,0.508 -0.54187,0.83538 -0.18062,0.4064 -0.25964,0.84667 -0.24836,1.23049 0.0113,0.18062 0.0452,0.34996 0.1016,0.49671 -0.25964,0.23707 -0.51929,0.46285 -0.80151,0.67734 -1.41111,1.10631 -2.72062,1.71591 -3.61245,1.65946 -0.56444,-0.0226 -0.93697,-0.21448 -1.1176,-0.54186 -0.3048,-0.58703 0.079,-1.45627 0.079,-1.45627 0.7112,-1.55787 2.82222,-3.01414 4.03013,-3.49956 0.66605,-0.27093 1.27565,-0.4064 1.76107,-0.4064 z m 1.28694,0.76764 c 0.12417,0 0.21449,0.0339 0.25964,0.1016 0.0903,0.14676 -0.0339,0.46285 -0.079,0.57574 -0.24836,0.51929 -0.85796,1.23049 -1.63689,1.96427 -0.13547,-0.44027 -0.0452,-1.03858 0.15804,-1.524 0.29351,-0.69992 0.76765,-1.10632 1.29823,-1.11761 z"
         style="font-style:italic;font-family:'League Script Thin';-inkscape-font-specification:'League Script Thin,  Italic';text-align:center;text-anchor:middle;fill:#780000;fill-opacity:1;stroke:#780000;stroke-opacity:1"
         id="path109570" />
      <path
         d="m 610.52296,347.14739 c 2.11102,0.1016 4.49298,-0.99343 6.49111,-2.54001 1.16276,-0.9144 2.17876,-1.98684 2.90125,-3.08187 0.83538,-0.079 1.47885,-0.37253 1.86267,-0.77893 0.34996,-0.34996 0.48542,-0.74507 0.53058,-1.00471 0.0677,-0.31609 0.0226,-0.62089 -0.13547,-0.89182 -0.23707,-0.36125 -0.64347,-0.49672 -1.19662,-0.56445 0.0113,-0.0452 0,-0.079 0,-0.12418 -0.0226,-0.23706 -0.0677,-0.49671 -0.16934,-0.73378 -0.22577,-0.64346 -0.89182,-1.00471 -1.68204,-1.016 -0.28222,0 -0.59831,0.0565 -0.94827,0.19191 -0.0226,-0.0226 -0.0339,-0.0451 -0.0564,-0.0451 -0.14676,-0.0339 -0.28223,-0.0339 -0.42898,-0.0339 -0.7112,0 -1.46756,0.18062 -2.17876,0.46285 -1.14018,0.46284 -2.50614,1.25306 -3.78178,2.31422 -1.26436,1.07245 -2.4384,2.41583 -3.19476,4.01885 -0.83538,2.02071 -0.32738,3.6576 1.98685,3.82694 z m 0.0564,-0.2032 c -2.05458,-0.11289 -2.68676,-1.54658 -1.85138,-3.57858 0.72249,-1.54658 1.87396,-2.86739 3.11574,-3.91725 1.12889,-0.93698 2.39324,-1.71592 3.72533,-2.28036 0.67734,-0.29351 1.46756,-0.46285 2.08845,-0.44027 0.0677,0 0.14676,0 0.21449,0 -0.76765,0.38382 -1.29822,0.99343 -1.50142,1.8288 -0.0903,0.44027 -0.0565,0.90312 0.11288,1.3208 -0.39511,0.34996 -0.80151,0.76765 -1.17404,1.27565 -0.0339,0.0564 -0.0226,0.11289 0.0226,0.13547 0.0451,0.0339 0.11289,0.0113 0.13546,-0.0339 0.34996,-0.48542 0.72249,-0.86924 1.10632,-1.19662 0.079,0.15804 0.18062,0.31609 0.3048,0.46284 0.25964,0.29351 0.67733,0.55316 1.14018,0.73378 0.47413,0.16933 1.016,0.28222 1.55786,0.28222 0.0339,0 0.0677,0 0.1016,0 -0.68862,1.03858 -1.65946,2.05458 -2.77707,2.92383 -1.64818,1.28693 -3.93982,2.55129 -6.32178,2.48356 z m 6.46854,-6.57014 c -0.12418,-0.14676 -0.23707,-0.3048 -0.31609,-0.46285 0.55316,-0.44027 1.09502,-0.73378 1.56916,-0.93698 0.76764,-0.33866 1.73849,-0.51929 2.48356,-0.49671 -0.0113,0.36125 -0.0677,0.68862 -0.0903,0.84667 -0.13546,0.66604 -0.46284,1.34338 -0.88053,1.99813 -0.0677,0.0113 -0.12418,0.0113 -0.19191,0.0113 -0.51929,0 -1.03858,-0.1016 -1.49014,-0.27093 -0.46284,-0.18062 -0.84666,-0.41769 -1.08373,-0.68862 z m 3.84951,-1.04987 c 0.0226,-0.15805 0.079,-0.47413 0.079,-0.83538 0.39511,0.0564 0.76764,0.16933 1.02729,0.48542 0.12418,0.2032 0.15804,0.46285 0.1016,0.76765 -0.0452,0.23707 -0.16934,0.57573 -0.46285,0.88053 -0.39511,0.4064 -1.08373,0.65476 -1.60302,0.68863 0.36124,-0.59832 0.66604,-1.21921 0.84667,-1.97556 z m -4.32364,-0.76765 c 0.22577,-1.14018 1.39982,-1.90782 2.51742,-1.94169 0.67733,0 1.29822,0.31609 1.524,0.9144 0.0903,0.23707 0.14676,0.49672 0.15805,0.74507 -0.8128,0 -1.6256,0.14676 -2.52872,0.508 -0.48542,0.21449 -1.02729,0.508 -1.58044,0.94827 -0.14676,-0.37253 -0.16934,-0.77893 -0.0903,-1.17405 z"
         style="font-style:italic;font-family:'League Script Thin';-inkscape-font-specification:'League Script Thin,  Italic';text-align:center;text-anchor:middle;fill:#780000;fill-opacity:1;stroke:#780000;stroke-opacity:1"
         id="path109572" />
      <path
         d="m 618.2897,346.96676 c 0.58702,0.53058 1.44498,0.83538 2.40454,0.83538 1.38853,0 2.58515,-0.46284 3.28507,-0.9144 0.9144,-0.59831 1.56915,-1.3208 2.02071,-2.08844 0.68862,-1.15147 0.95956,-2.42712 1.25307,-3.71405 0.14675,-0.59831 0.29351,-1.19663 0.47413,-1.79494 0.64347,-0.0226 1.3208,-0.16933 1.95298,-0.42898 0.59831,-0.24835 1.36596,-0.73377 1.90782,-1.34338 0.46285,-0.53057 0.79023,-1.17404 0.64347,-1.79493 -0.0903,-0.4064 -0.49671,-0.58702 -0.97084,-0.59831 -1.19663,0 -2.17876,1.03858 -2.84481,2.11102 -0.36124,0.59831 -0.62089,1.23049 -0.82409,1.85138 -0.64346,0 -1.19662,-0.15804 -1.56915,-0.48542 -0.0339,-0.0452 -0.0903,-0.0339 -0.14676,0.0113 -0.0452,0.0451 -0.0452,0.11289 0,0.14675 0.39511,0.36125 0.98214,0.53058 1.64818,0.53058 -0.31609,1.02729 -0.508,2.06587 -0.77893,3.05929 -0.22578,0.83538 -0.49672,1.63689 -0.92569,2.38196 -0.44027,0.73378 -1.03858,1.39983 -1.93041,1.97556 -0.65475,0.42898 -1.80622,0.89182 -3.1496,0.89182 -0.9144,0 -1.73849,-0.29351 -2.28036,-0.79022 -0.0339,-0.0339 -0.0677,-0.0677 -0.1016,-0.1016 0.56445,-0.3048 1.02729,-0.7112 1.35467,-1.04987 0.58702,-0.6096 0.97085,-1.2192 1.15147,-2.032 0.14676,-0.73378 -0.18062,-1.29822 -0.97085,-1.34338 -0.64346,0 -1.17404,0.38382 -1.60302,0.94827 -0.77893,1.1176 -1.00471,2.44969 -0.27093,3.44311 -0.42898,0.19191 -0.9144,0.32738 -1.45627,0.32738 -0.22578,0 -0.46285,-0.0226 -0.7112,-0.079 -0.0452,-0.0113 -0.11289,0.0339 -0.12418,0.079 -0.0226,0.0564 0,0.11289 0.0452,0.12418 0.24835,0.0564 0.508,0.079 0.74506,0.079 0.508,0 1.14018,-0.13547 1.63689,-0.38382 z m 0.16933,-3.6576 c 0.34996,-0.45156 0.79023,-0.76764 1.39983,-0.82409 0.64346,0 0.9144,0.49671 0.80151,1.12889 -0.18062,0.90311 -0.79022,1.70462 -1.55787,2.37067 -0.24835,0.21449 -0.55316,0.4064 -0.88053,0.58702 -0.69992,-0.88053 -0.53058,-2.1336 0.23706,-3.26249 z m 10.11486,-5.99441 c 0.57573,-0.95955 1.46756,-1.9304 2.6416,-1.98684 0.33867,0 0.73378,0.13546 0.80151,0.53058 0.11289,0.44026 -0.18062,1.08373 -0.6096,1.55786 -0.46284,0.51929 -1.14018,0.95956 -1.78364,1.25307 -0.58703,0.24836 -1.23049,0.39511 -1.82881,0.41769 0.2032,-0.6096 0.44027,-1.20791 0.77894,-1.77236 z"
         style="font-style:italic;font-family:'League Script Thin';-inkscape-font-specification:'League Script Thin,  Italic';text-align:center;text-anchor:middle;fill:#780000;fill-opacity:1;stroke:#780000;stroke-opacity:1"
         id="path109574" />
    </g>
    <g
       aria-label="mocaccinoOS"
       id="text935"
       style="font-size:11.2889px;line-height:1.25;display:inline;fill:#c00000;stroke-width:0.264583"
       transform="translate(0,-5.2916667)">
      <path
         d="m 522.77584,351.70668 c 0.0113,-0.0113 0.73378,-0.58702 1.65947,-1.37724 0.66604,-0.54187 1.49013,-1.17405 2.34809,-1.78365 2.78836,-1.99814 4.80907,-2.92383 5.70089,-2.60774 0,0 0.25965,0.1016 0.29351,0.45156 0.0339,0.37253 -0.18062,0.92569 -0.62088,1.59173 -0.33867,0.48543 -0.79023,1.04987 -1.36596,1.65947 -0.84667,0.85796 -1.79494,1.78365 -1.81751,1.79494 l 0.13546,0.12418 c 0.69991,-0.67734 1.35467,-1.35467 1.81752,-1.78365 0.39511,-0.37253 0.83537,-0.76765 1.29822,-1.15147 0.99342,-0.83538 1.88524,-1.47884 2.65289,-1.91911 0.95956,-0.53058 1.70462,-0.74507 2.29165,-0.67734 0.0113,0 0.41769,0.0452 0.49671,0.38383 0.0452,0.22578 -0.0452,0.51929 -0.29351,0.90311 -0.31609,0.508 -0.88054,1.12889 -1.67076,1.86267 -0.48542,0.45155 -0.85796,0.89182 -1.016,1.16275 -0.16933,0.29352 -0.24836,0.53058 -0.18062,0.72249 0.25964,0.69992 1.60302,0.33867 2.31422,0.0677 0.65476,-0.24836 1.76107,-0.82409 3.21734,-1.98685 0.0452,-0.0451 0.0564,-0.11289 0.0339,-0.14675 -0.0339,-0.0452 -0.1016,-0.0452 -0.14675,0 -1.41111,1.12889 -2.48356,1.68204 -3.13832,1.94169 -0.49671,0.2032 -1.87395,0.59831 -2.07715,0.0226 -0.079,-0.2032 0.0677,-0.66604 1.1176,-1.64818 1.49013,-1.37724 2.17876,-2.38195 2.05458,-2.98026 -0.11289,-0.42898 -0.58703,-0.47414 -0.65476,-0.48543 -0.59831,-0.0677 -1.4224,0.12418 -2.41582,0.68863 -0.79023,0.45155 -1.69334,1.10631 -2.69805,1.94169 -0.079,0.0677 -0.16933,0.14675 -0.24836,0.21449 0.16934,-0.21449 0.32738,-0.42898 0.45156,-0.62089 0.48542,-0.72249 0.72249,-1.30952 0.67733,-1.73849 -0.0903,-0.74507 -0.85795,-0.72249 -1.56915,-0.55316 -0.41769,0.1016 -0.9144,0.29351 -1.45627,0.56444 -0.92569,0.46285 -2.032,1.14018 -3.28507,2.0433 -0.12418,0.0903 -0.24836,0.16933 -0.36125,0.25964 0.49672,-0.46285 0.90312,-0.86925 1.23049,-1.23049 0.6096,-0.66605 0.9144,-1.12889 0.90312,-1.39982 0.0113,-0.13547 -0.0677,-0.22578 -0.18063,-0.27094 -0.0452,-0.0226 -0.11289,0 -0.14675,0.0564 -0.0226,0.0564 -0.0113,0.11289 0.0451,0.13546 0.0452,0.0226 0.079,0.0565 0.0903,0.11289 0,0.23707 -0.38382,0.92569 -2.77706,3.11574 -0.73378,0.66604 -2.79965,2.37067 -2.83352,2.40454 z"
         style="font-style:italic;font-weight:bold;font-family:'League Script Thin';-inkscape-font-specification:'League Script Thin,  Italic';text-align:center;text-anchor:middle;fill:#c00000;fill-opacity:1;stroke:none;stroke-width:0.265;stroke-miterlimit:4;stroke-dasharray:none;stroke-opacity:1"
         id="path109577" />
      <path
         d="m 541.04127,351.62766 c 0.47413,0 1.07244,-0.14676 1.71591,-0.46285 0.6096,-0.29351 1.28694,-0.73377 1.95298,-1.25306 0.25965,-0.2032 0.51929,-0.41769 0.76765,-0.64347 0.42897,0.58702 1.2192,0.83538 2.06586,0.75636 0.73378,-0.0677 1.49014,-0.37254 2.23521,-0.86925 0.0452,-0.0339 0.0564,-0.0903 0.0339,-0.13547 -0.0226,-0.0452 -0.0903,-0.0564 -0.13546,-0.0226 -1.51272,1.02729 -3.21734,1.16275 -4.03014,0.11288 0.25964,-0.23706 0.508,-0.49671 0.74507,-0.74506 0.47413,-0.53058 0.83538,-1.00471 0.98213,-1.33209 0.0226,-0.0452 0.24836,-0.54187 0.0903,-0.76765 -0.0564,-0.079 -0.13546,-0.13546 -0.22578,-0.15804 0.0226,-0.0339 0.0339,-0.079 0.0226,-0.12418 -0.0113,-0.0113 -0.18062,-0.33867 -0.68862,-0.53058 -0.29351,-0.11289 -0.65476,-0.14675 -1.03858,-0.12418 -0.47413,0.0339 -0.99342,0.16934 -1.60302,0.4064 -0.69992,0.29351 -1.55787,0.82409 -2.30294,1.4224 -0.62089,0.50801 -1.45627,1.29823 -1.87396,2.21263 -0.0113,0.0339 -0.42897,0.95956 -0.079,1.6256 0.2032,0.38382 0.63218,0.59831 1.25307,0.63218 z m 4.69618,-6.1073 c 0.27093,0 0.54187,0.0565 0.72249,0.11289 0.36125,0.11289 0.55316,0.38383 0.59831,0.45156 -0.0564,0 -0.11289,0 -0.18062,0.0113 -0.27093,0.0452 -0.54187,0.19191 -0.79022,0.42898 -0.21449,0.21449 -0.4064,0.508 -0.54187,0.83538 -0.18062,0.4064 -0.25965,0.84666 -0.24836,1.23049 0.0113,0.18062 0.0452,0.34995 0.1016,0.49671 -0.25964,0.23706 -0.51929,0.46284 -0.80151,0.67733 -1.41111,1.10631 -2.72062,1.71591 -3.61245,1.65947 -0.56444,-0.0226 -0.93698,-0.21449 -1.1176,-0.54187 -0.3048,-0.58702 0.079,-1.45627 0.079,-1.45627 0.71121,-1.55786 2.82223,-3.01413 4.03014,-3.49956 0.66605,-0.27093 1.27565,-0.4064 1.76107,-0.4064 z m 1.28694,0.76765 c 0.12417,0 0.21448,0.0339 0.25964,0.1016 0.0903,0.14676 -0.0339,0.46284 -0.079,0.57573 -0.24836,0.51929 -0.85796,1.23049 -1.63689,1.96427 -0.13547,-0.44026 -0.0452,-1.03858 0.15804,-1.524 0.29351,-0.69991 0.76765,-1.10631 1.29823,-1.1176 z"
         style="font-style:italic;font-weight:bold;font-family:'League Script Thin';-inkscape-font-specification:'League Script Thin,  Italic';text-align:center;text-anchor:middle;fill:#c00000;fill-opacity:1;stroke:none;stroke-opacity:1"
         id="path109579" />
      <path
         d="m 550.95291,351.57122 c 0.21449,0 0.36125,-0.0113 0.39511,-0.0113 0.0677,0 0.83538,-0.0452 1.90783,-0.3048 0.65475,-0.15805 1.33209,-0.4064 1.98684,-0.69992 0.82409,-0.37253 1.61432,-0.83537 2.35938,-1.36595 0.0564,-0.0339 0.0677,-0.1016 0.0452,-0.14676 -0.0226,-0.0452 -0.0903,-0.0452 -0.14676,-0.0113 -1.64818,1.18534 -3.22862,1.77236 -4.25591,2.02072 -1.06116,0.25964 -1.85138,0.3048 -1.86267,0.3048 -0.0226,0 -2.15618,0.2032 -2.09974,-0.94827 0.0226,-0.62089 0.63218,-1.55787 1.60303,-2.4384 0.99342,-0.90312 2.16747,-1.58045 3.11574,-1.79494 0.8128,-0.19191 1.33209,-0.13547 1.49013,0.15805 0.13547,0.24835 -0.0113,0.6096 -0.14676,0.79022 -0.0339,0.0452 -0.0339,0.11289 0,0.13547 0.0565,0.0226 0.11289,0.0113 0.15805,-0.0452 0.16933,-0.22578 0.36124,-0.67733 0.18062,-1.00471 -0.1016,-0.16934 -0.27093,-0.28223 -0.53058,-0.32738 -0.28222,-0.0452 -0.67733,-0.0113 -1.16275,0.0903 -0.99343,0.22578 -2.20134,0.92569 -3.22863,1.86267 -1.02729,0.93698 -1.67076,1.90782 -1.69333,2.60773 -0.0226,0.55316 0.37253,0.92569 1.14017,1.07245 0.27094,0.0452 0.54187,0.0564 0.74507,0.0564 z"
         style="font-style:italic;font-weight:bold;font-family:'League Script Thin';-inkscape-font-specification:'League Script Thin,  Italic';text-align:center;text-anchor:middle;fill:#c00000;fill-opacity:1;stroke:none;stroke-opacity:1"
         id="path109581" />
      <path
         d="m 567.77337,348.97477 c -0.0226,-0.0452 -0.0903,-0.0452 -0.14676,-0.0113 -1.524,1.19662 -3.48827,2.40453 -4.83165,2.40453 -0.32738,0 -0.95956,-0.1016 -0.90311,-0.49671 0.0339,-0.23706 0.28222,-0.56444 0.75635,-0.97084 0.37254,-0.32738 0.91441,-0.7112 1.58045,-1.14018 1.1176,-0.7112 2.25778,-1.29822 2.26907,-1.30951 0.0452,-0.0226 0.0903,-0.0903 0.0564,-0.13547 -0.0113,-0.0452 -0.0677,-0.0677 -0.12417,-0.0339 -0.0113,0 -1.14018,0.58703 -2.29165,1.3208 -0.0339,0.0226 -0.0677,0.0452 -0.11289,0.0677 0.93698,-0.8128 1.39982,-1.50143 1.38854,-2.05458 -0.0226,-0.65476 -0.72249,-0.85796 -0.76765,-0.86925 -0.24836,-0.079 -0.53058,-0.11289 -0.83538,-0.11289 -0.64347,0 -1.36596,0.15805 -2.15618,0.48543 -0.82409,0.32737 -1.67076,0.8128 -2.52871,1.43369 -1.33209,0.97084 -2.05458,1.87395 -2.12232,2.67547 -0.0564,0.93697 0.56445,1.49013 1.51272,1.49013 0.58702,0 1.28693,-0.22578 2.14489,-0.69991 0.53058,-0.29351 1.06115,-0.64347 1.61431,-1.02729 -0.36124,0.34995 -0.55316,0.64347 -0.58702,0.89182 -0.0677,0.56445 0.63218,0.68863 1.07244,0.68863 1.55787,0 3.69147,-1.46756 4.97841,-2.4497 0.0452,-0.0451 0.0564,-0.1016 0.0339,-0.14675 z m -9.21175,2.54 c -0.84666,0 -1.4224,-0.49671 -1.35467,-1.30951 0.0339,-0.32738 0.18063,-0.67734 0.46285,-1.04987 0.33867,-0.45156 0.86924,-0.94827 1.55787,-1.44498 1.63689,-1.19662 3.29636,-1.87396 4.54942,-1.87396 0.28223,0 0.54187,0.0339 0.77894,0.1016 0.0113,0 0.64347,0.18063 0.65475,0.72249 0.0113,0.46285 -0.39511,1.29823 -2.39324,2.72063 -1.33209,0.94827 -2.99156,2.1336 -4.25592,2.1336 z"
         style="font-style:italic;font-weight:bold;font-family:'League Script Thin';-inkscape-font-specification:'League Script Thin,  Italic';text-align:center;text-anchor:middle;fill:#c00000;fill-opacity:1;stroke:none;stroke-opacity:1"
         id="path109583" />
      <path
         d="m 568.86837,351.57122 c 0.21449,0 0.36125,-0.0113 0.39512,-0.0113 0.0677,0 0.83537,-0.0452 1.90782,-0.3048 0.65476,-0.15805 1.33209,-0.4064 1.98685,-0.69992 0.82409,-0.37253 1.61431,-0.83537 2.35938,-1.36595 0.0564,-0.0339 0.0677,-0.1016 0.0451,-0.14676 -0.0226,-0.0452 -0.0903,-0.0452 -0.14675,-0.0113 -1.64818,1.18534 -3.22863,1.77236 -4.25592,2.02072 -1.06116,0.25964 -1.85138,0.3048 -1.86267,0.3048 -0.0226,0 -2.15618,0.2032 -2.09973,-0.94827 0.0226,-0.62089 0.63218,-1.55787 1.60302,-2.4384 0.99342,-0.90312 2.16747,-1.58045 3.11574,-1.79494 0.8128,-0.19191 1.33209,-0.13547 1.49013,0.15805 0.13547,0.24835 -0.0113,0.6096 -0.14675,0.79022 -0.0339,0.0452 -0.0339,0.11289 0,0.13547 0.0564,0.0226 0.11289,0.0113 0.15804,-0.0452 0.16933,-0.22578 0.36125,-0.67733 0.18062,-1.00471 -0.1016,-0.16934 -0.27093,-0.28223 -0.53057,-0.32738 -0.28223,-0.0452 -0.67734,-0.0113 -1.16276,0.0903 -0.99342,0.22578 -2.20134,0.92569 -3.22863,1.86267 -1.02729,0.93698 -1.67075,1.90782 -1.69333,2.60773 -0.0226,0.55316 0.37253,0.92569 1.14018,1.07245 0.27093,0.0452 0.54186,0.0564 0.74506,0.0564 z"
         style="font-style:italic;font-weight:bold;font-family:'League Script Thin';-inkscape-font-specification:'League Script Thin,  Italic';text-align:center;text-anchor:middle;fill:#c00000;fill-opacity:1;stroke:none;stroke-opacity:1"
         id="path109585" />
      <path
         d="m 576.69157,351.57122 c 0.21449,0 0.36124,-0.0113 0.39511,-0.0113 0.0677,0 0.83538,-0.0452 1.90782,-0.3048 0.65476,-0.15805 1.33209,-0.4064 1.98685,-0.69992 0.82409,-0.37253 1.61431,-0.83537 2.35938,-1.36595 0.0564,-0.0339 0.0677,-0.1016 0.0452,-0.14676 -0.0226,-0.0452 -0.0903,-0.0452 -0.14676,-0.0113 -1.64818,1.18534 -3.22863,1.77236 -4.25592,2.02072 -1.06115,0.25964 -1.85138,0.3048 -1.86266,0.3048 -0.0226,0 -2.15618,0.2032 -2.09974,-0.94827 0.0226,-0.62089 0.63218,-1.55787 1.60302,-2.4384 0.99343,-0.90312 2.16747,-1.58045 3.11574,-1.79494 0.8128,-0.19191 1.33209,-0.13547 1.49014,0.15805 0.13546,0.24835 -0.0113,0.6096 -0.14676,0.79022 -0.0339,0.0452 -0.0339,0.11289 0,0.13547 0.0564,0.0226 0.11289,0.0113 0.15804,-0.0452 0.16934,-0.22578 0.36125,-0.67733 0.18063,-1.00471 -0.1016,-0.16934 -0.27094,-0.28223 -0.53058,-0.32738 -0.28222,-0.0452 -0.67734,-0.0113 -1.16276,0.0903 -0.99342,0.22578 -2.20133,0.92569 -3.22862,1.86267 -1.02729,0.93698 -1.67076,1.90782 -1.69334,2.60773 -0.0226,0.55316 0.37253,0.92569 1.14018,1.07245 0.27093,0.0452 0.54187,0.0564 0.74507,0.0564 z"
         style="font-style:italic;font-weight:bold;font-family:'League Script Thin';-inkscape-font-specification:'League Script Thin,  Italic';text-align:center;text-anchor:middle;fill:#c00000;fill-opacity:1;stroke:none;stroke-opacity:1"
         id="path109587" />
      <path
         d="m 583.18268,351.46961 c 1.524,0 3.4544,-1.18533 5.02356,-2.32551 0.0565,-0.0451 0.0677,-0.1016 0.0452,-0.14675 -0.0339,-0.0452 -0.1016,-0.0452 -0.14676,-0.0113 -1.524,1.12889 -3.57858,2.28035 -4.88809,2.28035 -0.29351,0 -0.73378,-0.0339 -0.75636,-0.36124 -0.0452,-0.82409 1.30951,-2.24649 2.04329,-3.07058 1.04987,-1.15147 2.12232,-2.16747 2.1336,-2.17876 0.0452,-0.0451 0.0565,-0.11289 0.0113,-0.14675 -0.0339,-0.0339 -0.1016,-0.0339 -0.14675,0.0113 -0.0113,0.0113 -1.08374,1.03858 -2.13361,2.20134 -0.79022,0.88053 -2.17875,2.34809 -2.11102,3.22863 0.0113,0.45155 0.508,0.51928 0.92569,0.51928 z m 5.24934,-7.39422 c 0.0564,-0.29352 -0.14676,-0.54187 -0.44027,-0.54187 -0.3048,0 -0.59831,0.24835 -0.65475,0.54187 -0.0677,0.3048 0.13546,0.55315 0.44026,0.55315 0.29351,0 0.58703,-0.24835 0.65476,-0.55315 z"
         style="font-style:italic;font-weight:bold;font-family:'League Script Thin';-inkscape-font-specification:'League Script Thin,  Italic';text-align:center;text-anchor:middle;fill:#c00000;fill-opacity:1;stroke:none;stroke-opacity:1"
         id="path109589" />
      <path
         d="m 585.892,351.59379 c 0,-0.0113 0.508,-0.56444 1.07245,-1.15147 0.55316,-0.56444 1.28693,-1.26435 2.11102,-1.94169 1.64818,-1.34338 4.00756,-2.87867 5.87023,-2.48355 0.33867,0.0677 0.53058,0.21449 0.55316,0.42897 0.079,0.54187 -0.79022,1.39983 -0.79022,1.39983 0,0 -0.57574,0.54187 -1.10632,1.16275 -0.73378,0.88054 -1.10631,1.5353 -1.09502,1.97556 0.0113,0.22578 0.13547,0.38382 0.33867,0.47414 0.0903,0.0452 0.21449,0.0677 0.36124,0.0677 0.56445,0 1.45627,-0.37253 2.66418,-1.10631 1.09503,-0.67734 2.08845,-1.4224 2.08845,-1.4224 0.0452,-0.0452 0.0564,-0.1016 0.0339,-0.14676 -0.0226,-0.0452 -0.0903,-0.0452 -0.14676,-0.0113 0,0.0113 -0.97085,0.74507 -2.06587,1.41111 -1.41111,0.86925 -2.38196,1.2192 -2.82222,1.02729 -0.15805,-0.0677 -0.23707,-0.18062 -0.23707,-0.33866 -0.0113,-0.37254 0.33867,-1.00472 1.02729,-1.81752 0.53058,-0.62089 1.08373,-1.14018 1.08373,-1.15146 0.0226,-0.0339 0.97085,-0.93698 0.86925,-1.59174 -0.0452,-0.28222 -0.27093,-0.47413 -0.66605,-0.56444 -0.86924,-0.18063 -1.89653,0.0113 -3.05929,0.56444 -0.92569,0.44027 -1.94169,1.10631 -3.01413,1.98685 -0.20321,0.16933 -0.40641,0.33866 -0.59832,0.508 0.56445,-0.66605 1.016,-1.23049 1.34338,-1.68205 0.62089,-0.88053 0.64347,-1.17404 0.6096,-1.30951 -0.0113,-0.0452 -0.0677,-0.0677 -0.12417,-0.0452 -0.0565,0.0226 -0.0903,0.079 -0.079,0.13547 0.0452,0.13547 -0.0903,0.69991 -2.08844,3.00285 -0.4064,0.47413 -0.83538,0.94827 -1.20792,1.34338 -0.67733,0.72249 -1.07244,1.15146 -1.07244,1.15146 z"
         style="font-style:italic;font-weight:bold;font-family:'League Script Thin';-inkscape-font-specification:'League Script Thin,  Italic';text-align:center;text-anchor:middle;fill:#c00000;fill-opacity:1;stroke:none;stroke-opacity:1"
         id="path109591" />
      <path
         d="m 598.88551,351.62766 c 0.47414,0 1.07245,-0.14676 1.71592,-0.46285 0.6096,-0.29351 1.28693,-0.73377 1.95298,-1.25306 0.25964,-0.2032 0.51929,-0.41769 0.76764,-0.64347 0.42898,0.58702 1.2192,0.83538 2.06587,0.75636 0.73378,-0.0677 1.49014,-0.37254 2.2352,-0.86925 0.0452,-0.0339 0.0565,-0.0903 0.0339,-0.13547 -0.0226,-0.0452 -0.0903,-0.0564 -0.13547,-0.0226 -1.51271,1.02729 -3.21733,1.16275 -4.03013,0.11288 0.25964,-0.23706 0.508,-0.49671 0.74506,-0.74506 0.47414,-0.53058 0.83538,-1.00471 0.98214,-1.33209 0.0226,-0.0452 0.24835,-0.54187 0.0903,-0.76765 -0.0565,-0.079 -0.13547,-0.13546 -0.22578,-0.15804 0.0226,-0.0339 0.0339,-0.079 0.0226,-0.12418 -0.0113,-0.0113 -0.18062,-0.33867 -0.68862,-0.53058 -0.29352,-0.11289 -0.65476,-0.14675 -1.03858,-0.12418 -0.47414,0.0339 -0.99343,0.16934 -1.60303,0.4064 -0.69991,0.29351 -1.55787,0.82409 -2.30293,1.4224 -0.62089,0.50801 -1.45627,1.29823 -1.87396,2.21263 -0.0113,0.0339 -0.42898,0.95956 -0.079,1.6256 0.2032,0.38382 0.63218,0.59831 1.25306,0.63218 z m 4.69619,-6.1073 c 0.27093,0 0.54186,0.0565 0.72249,0.11289 0.36124,0.11289 0.55315,0.38383 0.59831,0.45156 -0.0565,0 -0.11289,0 -0.18062,0.0113 -0.27094,0.0452 -0.54187,0.19191 -0.79023,0.42898 -0.21449,0.21449 -0.4064,0.508 -0.54186,0.83538 -0.18063,0.4064 -0.25965,0.84666 -0.24836,1.23049 0.0113,0.18062 0.0452,0.34995 0.1016,0.49671 -0.25965,0.23706 -0.51929,0.46284 -0.80151,0.67733 -1.41111,1.10631 -2.72063,1.71591 -3.61245,1.65947 -0.56445,-0.0226 -0.93698,-0.21449 -1.1176,-0.54187 -0.3048,-0.58702 0.079,-1.45627 0.079,-1.45627 0.7112,-1.55786 2.82223,-3.01413 4.03014,-3.49956 0.66604,-0.27093 1.27564,-0.4064 1.76107,-0.4064 z m 1.28693,0.76765 c 0.12418,0 0.21449,0.0339 0.25965,0.1016 0.0903,0.14676 -0.0339,0.46284 -0.079,0.57573 -0.24835,0.51929 -0.85795,1.23049 -1.63689,1.96427 -0.13546,-0.44026 -0.0452,-1.03858 0.15805,-1.524 0.29351,-0.69991 0.76764,-1.10631 1.29822,-1.1176 z"
         style="font-style:italic;font-weight:bold;font-family:'League Script Thin';-inkscape-font-specification:'League Script Thin,  Italic';text-align:center;text-anchor:middle;fill:#c00000;fill-opacity:1;stroke:none;stroke-opacity:1"
         id="path109593" />
      <path
         d="m 609.99378,351.90988 c 2.11103,0.1016 4.49298,-0.99342 6.49112,-2.54 1.16276,-0.9144 2.17876,-1.98685 2.90125,-3.08187 0.83537,-0.079 1.47884,-0.37253 1.86266,-0.77893 0.34996,-0.34996 0.48543,-0.74507 0.53058,-1.00472 0.0677,-0.31609 0.0226,-0.62089 -0.13546,-0.89182 -0.23707,-0.36124 -0.64347,-0.49671 -1.19663,-0.56444 0.0113,-0.0452 0,-0.079 0,-0.12418 -0.0226,-0.23707 -0.0677,-0.49671 -0.16933,-0.73378 -0.22578,-0.64347 -0.89182,-1.00471 -1.68205,-1.016 -0.28222,0 -0.59831,0.0564 -0.94826,0.19191 -0.0226,-0.0226 -0.0339,-0.0452 -0.0564,-0.0452 -0.14676,-0.0339 -0.28222,-0.0339 -0.42898,-0.0339 -0.7112,0 -1.46755,0.18062 -2.17876,0.46284 -1.14017,0.46285 -2.50613,1.25307 -3.78178,2.31423 -1.26435,1.07244 -2.4384,2.41582 -3.19476,4.01884 -0.83537,2.02072 -0.32737,3.65761 1.98685,3.82694 z m 0.0565,-0.2032 c -2.05458,-0.11289 -2.68676,-1.54658 -1.85138,-3.57858 0.72249,-1.54658 1.87395,-2.86738 3.11573,-3.91725 1.12889,-0.93698 2.39325,-1.71591 3.72534,-2.28036 0.67733,-0.29351 1.46756,-0.46284 2.08845,-0.44026 0.0677,0 0.14675,0 0.21448,0 -0.76764,0.38382 -1.29822,0.99342 -1.50142,1.8288 -0.0903,0.44027 -0.0564,0.90311 0.11289,1.3208 -0.39511,0.34996 -0.80151,0.76765 -1.17405,1.27565 -0.0339,0.0564 -0.0226,0.11288 0.0226,0.13546 0.0452,0.0339 0.11289,0.0113 0.13547,-0.0339 0.34995,-0.48543 0.72249,-0.86925 1.10631,-1.19663 0.079,0.15805 0.18062,0.31609 0.3048,0.46285 0.25965,0.29351 0.67734,0.55315 1.14018,0.73378 0.47413,0.16933 1.016,0.28222 1.55787,0.28222 0.0339,0 0.0677,0 0.1016,0 -0.68862,1.03858 -1.65947,2.05458 -2.77707,2.92382 -1.64818,1.28694 -3.93983,2.5513 -6.32178,2.48356 z m 6.46854,-6.57014 c -0.12418,-0.14675 -0.23707,-0.3048 -0.31609,-0.46284 0.55315,-0.44027 1.09502,-0.73378 1.56915,-0.93698 0.76765,-0.33867 1.73849,-0.51929 2.48356,-0.49671 -0.0113,0.36124 -0.0677,0.68862 -0.0903,0.84666 -0.13547,0.66605 -0.46284,1.34338 -0.88053,1.99814 -0.0677,0.0113 -0.12418,0.0113 -0.19192,0.0113 -0.51929,0 -1.03857,-0.1016 -1.49013,-0.27094 -0.46285,-0.18062 -0.84667,-0.41768 -1.08373,-0.68862 z m 3.84951,-1.04987 c 0.0226,-0.15804 0.079,-0.47413 0.079,-0.83537 0.39511,0.0564 0.76765,0.16933 1.02729,0.48542 0.12418,0.2032 0.15805,0.46284 0.1016,0.76764 -0.0452,0.23707 -0.16933,0.57574 -0.46284,0.88054 -0.39511,0.4064 -1.08374,0.65475 -1.60303,0.68862 0.36125,-0.59831 0.66605,-1.2192 0.84667,-1.97556 z m -4.32365,-0.76764 c 0.22578,-1.14018 1.39982,-1.90783 2.51743,-1.94169 0.67733,0 1.29822,0.31609 1.524,0.9144 0.0903,0.23707 0.14675,0.49671 0.15804,0.74507 -0.8128,0 -1.6256,0.14675 -2.52871,0.508 -0.48542,0.21449 -1.02729,0.508 -1.58045,0.94826 -0.14675,-0.37253 -0.16933,-0.77893 -0.0903,-1.17404 z"
         style="font-style:italic;font-weight:bold;font-family:'League Script Thin';-inkscape-font-specification:'League Script Thin,  Italic';text-align:center;text-anchor:middle;fill:#c00000;fill-opacity:1;stroke:none;stroke-opacity:1"
         id="path109595" />
      <path
         d="m 617.76053,351.72926 c 0.58702,0.53058 1.44497,0.83538 2.40453,0.83538 1.38854,0 2.58516,-0.46285 3.28507,-0.9144 0.9144,-0.59831 1.56916,-1.3208 2.02071,-2.08845 0.68863,-1.15147 0.95956,-2.42711 1.25307,-3.71405 0.14676,-0.59831 0.29351,-1.19662 0.47414,-1.79493 0.64346,-0.0226 1.3208,-0.16934 1.95298,-0.42898 0.59831,-0.24836 1.36595,-0.73378 1.90782,-1.34338 0.46284,-0.53058 0.79022,-1.17405 0.64347,-1.79494 -0.0903,-0.4064 -0.49671,-0.58702 -0.97085,-0.59831 -1.19662,0 -2.17876,1.03858 -2.8448,2.11103 -0.36125,0.59831 -0.62089,1.23049 -0.82409,1.85138 -0.64347,0 -1.19662,-0.15805 -1.56916,-0.48543 -0.0339,-0.0451 -0.0903,-0.0339 -0.14675,0.0113 -0.0452,0.0452 -0.0452,0.11289 0,0.14676 0.39511,0.36124 0.98213,0.53058 1.64818,0.53058 -0.31609,1.02729 -0.508,2.06587 -0.77894,3.05929 -0.22578,0.83538 -0.49671,1.63689 -0.92569,2.38196 -0.44027,0.73378 -1.03858,1.39982 -1.9304,1.97555 -0.65476,0.42898 -1.80622,0.89183 -3.1496,0.89183 -0.9144,0 -1.73849,-0.29351 -2.28036,-0.79022 -0.0339,-0.0339 -0.0677,-0.0677 -0.1016,-0.10161 0.56444,-0.3048 1.02729,-0.7112 1.35467,-1.04986 0.58702,-0.6096 0.97084,-1.2192 1.15146,-2.032 0.14676,-0.73378 -0.18062,-1.29823 -0.97084,-1.34338 -0.64347,0 -1.17405,0.38382 -1.60302,0.94826 -0.77894,1.1176 -1.00472,2.44969 -0.27094,3.44312 -0.42898,0.19191 -0.9144,0.32738 -1.45627,0.32738 -0.22577,0 -0.46284,-0.0226 -0.7112,-0.079 -0.0452,-0.0113 -0.11289,0.0339 -0.12418,0.079 -0.0226,0.0564 0,0.11289 0.0452,0.12417 0.24836,0.0565 0.508,0.079 0.74507,0.079 0.508,0 1.14018,-0.13547 1.63689,-0.38383 z m 0.16933,-3.6576 c 0.34995,-0.45156 0.79022,-0.76765 1.39982,-0.82409 0.64347,0 0.9144,0.49671 0.80151,1.12889 -0.18062,0.90311 -0.79022,1.70462 -1.55786,2.37067 -0.24836,0.21448 -0.55316,0.4064 -0.88054,0.58702 -0.69991,-0.88054 -0.53058,-2.1336 0.23707,-3.26249 z m 10.11485,-5.99441 c 0.57574,-0.95956 1.46756,-1.9304 2.64161,-1.98685 0.33866,0 0.73377,0.13547 0.80151,0.53058 0.11289,0.44027 -0.18062,1.08374 -0.6096,1.55787 -0.46285,0.51929 -1.14018,0.95956 -1.78365,1.25307 -0.58702,0.24835 -1.23049,0.39511 -1.8288,0.41769 0.2032,-0.6096 0.44027,-1.20792 0.77893,-1.77236 z"
         style="font-style:italic;font-weight:bold;font-family:'League Script Thin';-inkscape-font-specification:'League Script Thin,  Italic';text-align:center;text-anchor:middle;fill:#c00000;fill-opacity:1;stroke:none;stroke-opacity:1"
         id="path109597" />
    </g>
  </g>
</svg>
